<?xml version="1.0" standalone="no"?>
<!DOCTYPE svg PUBLIC "-//W3C//DTD SVG 20010904//EN"
 "http://www.w3.org/TR/2001/REC-SVG-20010904/DTD/svg10.dtd">
<svg version="1.0" xmlns="http://www.w3.org/2000/svg"
 width="300.000000pt" height="215.000000pt" viewBox="0 0 300.000000 215.000000"
 preserveAspectRatio="xMidYMid meet">

<g transform="translate(0.000000,215.000000) scale(0.100000,-0.100000)"
fill="#000000" stroke="none">
<path d="M38 2133 c22 -15 22 -16 22 -315 l0 -299 -23 -9 c-17 -7 -6 -9 43 -9
61 -1 63 0 42 15 -22 15 -22 17 -22 309 l0 294 28 15 c26 15 25 15 -43 15 -67
0 -69 -1 -47 -16z"/>
<path d="M226 2134 c30 -15 34 -24 120 -321 l89 -305 3 81 c2 62 -2 96 -21
153 -13 40 -45 148 -73 240 l-49 168 -50 0 -50 0 31 -16z"/>
<path d="M408 2140 c25 -11 29 -11 57 1 14 5 5 8 -30 8 -40 0 -45 -2 -27 -9z"/>
<path d="M649 2140 c-73 -22 -109 -70 -109 -149 0 -78 41 -124 164 -186 116
-58 140 -89 133 -164 -12 -115 -140 -167 -234 -95 -43 33 -63 72 -78 158 l-13
71 -1 -125 c0 -111 1 -123 14 -106 8 10 16 23 18 29 1 5 16 -3 32 -18 64 -59
158 -73 230 -32 145 82 97 257 -90 324 -106 38 -164 130 -134 210 21 54 59 77
125 77 32 0 48 3 37 7 -23 10 -61 9 -94 -1z"/>
<path d="M921 2058 c1 -82 2 -87 9 -43 9 59 32 110 55 119 9 3 39 6 66 6 l49
0 0 -310 0 -311 -22 -9 c-17 -6 -4 -9 47 -8 39 0 61 3 50 5 -11 3 -23 10 -27
17 -4 6 -8 147 -8 314 l0 302 51 0 c28 0 59 -5 70 -10 28 -16 49 -63 49 -115
0 -25 5 -45 10 -45 7 0 10 32 8 88 l-3 87 -202 3 -203 2 1 -92z"/>
<path d="M1578 2119 c-3 -17 5 -66 17 -108 41 -144 44 -130 -27 -134 l-63 -3
66 -2 65 -2 46 -172 c34 -125 44 -176 36 -185 -8 -10 0 -13 38 -13 41 0 45 2
31 13 -11 7 -49 123 -105 319 -49 170 -91 310 -94 313 -3 3 -8 -8 -10 -26z"/>
<path d="M1895 2135 c30 -15 34 -27 120 -323 l90 -307 3 80 c2 63 -2 96 -22
160 -14 44 -48 152 -74 240 l-49 160 -49 3 -49 2 30 -15z"/>
<path d="M2078 2140 c25 -11 29 -11 57 1 14 5 5 8 -30 8 -40 0 -45 -2 -27 -9z"/>
<path d="M2398 2143 c6 -2 18 -2 25 0 6 3 1 5 -13 5 -14 0 -19 -2 -12 -5z"/>
<path d="M2688 2133 c22 -15 22 -16 22 -307 0 -160 -4 -296 -8 -302 -4 -6 -14
-14 -22 -17 -8 -3 58 -6 148 -6 l162 -1 -1 113 c-2 111 -2 111 -9 40 -5 -41
-16 -87 -27 -105 l-19 -33 -92 -3 -92 -3 0 181 c0 163 2 181 16 178 29 -5 57
-54 62 -107 10 -104 20 -46 20 114 0 91 -4 165 -9 165 -5 0 -9 -16 -9 -35 0
-39 -24 -105 -43 -117 -33 -21 -37 -10 -37 122 l0 130 76 0 c70 0 78 -2 104
-28 20 -21 30 -43 35 -78 11 -79 13 -75 14 24 l1 92 -157 -1 c-147 0 -156 -1
-135 -16z"/>
<path d="M2325 2122 c-47 -29 -91 -85 -116 -149 -32 -81 -32 -224 -1 -303 40
-102 120 -171 194 -169 l33 1 -36 7 c-65 13 -112 64 -145 156 -27 77 -24 252
5 327 26 67 53 103 95 129 17 10 24 19 16 19 -8 0 -29 -8 -45 -18z"/>
<path d="M852 2108 c-21 -22 -22 -22 -44 -3 -15 13 -13 9 5 -11 16 -18 34 -51
41 -75 l13 -43 7 73 c4 40 6 75 4 77 -2 2 -14 -6 -26 -18z"/>
<path d="M2602 2049 c-13 -20 -14 -20 -35 -2 -19 16 -20 16 -8 0 7 -9 24 -45
37 -80 l23 -62 0 83 c1 45 0 82 -2 82 -1 0 -8 -9 -15 -21z"/>
<path d="M2611 1724 c0 -11 3 -14 6 -6 3 7 2 16 -1 19 -3 4 -6 -2 -5 -13z"/>
<path d="M2592 1663 c-15 -48 -8 -55 8 -8 7 20 10 38 8 41 -3 2 -10 -13 -16
-33z"/>
<path d="M226 1514 c-18 -13 -17 -14 19 -14 21 0 36 1 34 3 -2 1 -11 8 -19 14
-11 9 -20 8 -34 -3z"/>
<path d="M1400 1515 c-11 -13 -8 -15 15 -15 23 0 26 2 15 15 -7 8 -14 15 -15
15 -1 0 -8 -7 -15 -15z"/>
<path d="M1896 1514 c-18 -13 -17 -14 19 -14 21 0 36 1 34 3 -2 1 -11 8 -19
14 -11 9 -20 8 -34 -3z"/>
<path d="M234 1406 c-77 -36 -106 -80 -112 -170 -4 -65 -2 -78 21 -117 39 -65
84 -104 162 -139 121 -53 158 -76 189 -114 26 -31 31 -47 34 -104 4 -84 -15
-124 -84 -170 -46 -32 -54 -34 -116 -30 -61 3 -71 7 -115 44 -26 23 -57 56
-67 74 -24 40 -46 130 -46 188 0 23 -3 42 -8 42 -4 0 -7 -74 -7 -165 0 -154 5
-192 20 -146 14 44 32 45 79 4 53 -47 101 -63 185 -63 74 0 115 16 169 65 53
47 77 108 67 172 -16 109 -67 162 -230 238 -162 76 -212 136 -203 242 5 60 26
95 78 131 63 43 200 24 251 -34 30 -34 60 -105 67 -157 l7 -52 6 55 c4 30 7
91 8 135 l0 80 -29 -33 -30 -33 -33 25 c-80 61 -175 73 -263 32z"/>
<path d="M663 1416 c16 -7 33 -19 38 -27 5 -8 9 -190 9 -404 0 -421 -1 -428
-53 -438 -12 -2 23 -5 78 -5 92 -1 98 0 69 12 -17 8 -34 21 -38 31 -3 9 -6
118 -6 241 l0 224 110 0 110 0 0 -232 c0 -128 -4 -239 -9 -246 -4 -7 -21 -17
-37 -22 -21 -6 -2 -8 71 -8 79 0 94 2 72 10 -15 5 -29 19 -32 31 -3 12 -4 200
-3 417 l3 395 35 17 35 18 -100 0 -100 0 33 -20 32 -20 0 -165 0 -165 -110 0
-110 0 0 158 c0 86 4 163 9 171 5 8 22 20 38 27 25 11 17 12 -72 12 -89 0 -97
-1 -72 -12z"/>
<path d="M1416 1248 c-26 -101 -49 -192 -52 -203 -4 -14 -3 -16 4 -7 6 9 31
12 87 10 l78 -3 65 -239 c62 -229 64 -240 47 -253 -16 -11 -9 -13 56 -12 55 0
68 3 51 9 -12 5 -26 20 -31 32 -5 13 -62 209 -127 436 -64 226 -120 412 -124
412 -3 0 -27 -82 -54 -182z m104 -175 c0 -9 -21 -13 -70 -13 -38 0 -70 3 -70
8 0 9 59 232 67 252 5 13 73 -216 73 -247z"/>
<path d="M1860 1413 l35 -18 3 -404 c2 -438 3 -433 -52 -444 -11 -2 24 -4 79
-4 55 -1 91 2 80 4 -43 11 -45 19 -45 188 0 190 -12 175 135 175 130 1 217 44
270 135 74 125 22 286 -113 352 -55 27 -62 28 -242 31 -183 3 -185 3 -150 -15z
m315 -4 c25 -7 58 -29 87 -58 96 -96 101 -254 11 -361 -45 -54 -93 -70 -210
-70 l-103 0 0 250 0 250 88 0 c48 0 105 -5 127 -11z"/>
<path d="M2463 1416 c16 -7 33 -19 38 -27 5 -8 9 -190 9 -404 0 -421 -1 -428
-53 -438 -12 -2 83 -5 211 -6 l232 -1 0 150 c0 161 -14 203 -22 68 -6 -88 -25
-148 -60 -185 -20 -21 -30 -23 -140 -23 l-118 0 0 250 c0 271 0 271 52 230 32
-24 54 -78 63 -153 15 -119 25 -49 25 178 0 224 -10 297 -24 183 -13 -104 -54
-178 -98 -178 -17 0 -18 11 -16 178 l3 177 92 3 c115 3 152 -10 178 -64 10
-22 21 -67 23 -101 7 -108 22 -69 22 57 l0 120 -222 -1 c-188 0 -219 -3 -195
-13z"/>
<path d="M1351 1004 c0 -11 3 -14 6 -6 3 7 2 16 -1 19 -3 4 -6 -2 -5 -13z"/>
<path d="M1230 579 c-6 -11 -21 -24 -33 -29 -17 -7 -12 -9 26 -9 43 -1 47 1
33 14 -8 9 -13 22 -10 30 9 22 -4 18 -16 -6z"/>
<path d="M506 311 c-28 -31 -13 -66 44 -107 55 -39 69 -69 49 -106 -16 -32
-28 -38 -71 -38 -51 0 -72 23 -65 73 4 28 2 36 -5 29 -17 -17 -13 -70 7 -92
13 -15 31 -20 66 -20 39 0 51 4 68 26 35 45 28 72 -39 133 -33 31 -60 64 -60
73 0 18 28 38 54 38 20 0 48 -29 40 -42 -5 -7 -2 -8 5 -4 9 6 9 13 -2 29 -19
30 -68 34 -91 8z"/>
<path d="M840 296 c-6 -49 -29 -61 -27 -14 2 23 -3 33 -15 36 -23 4 -47 -44
-57 -116 -5 -31 -9 -48 -10 -36 -1 24 -31 54 -53 54 -20 0 -48 -32 -48 -54 0
-9 5 -26 10 -37 13 -23 68 -26 76 -4 13 34 24 11 26 -52 2 -64 2 -65 5 -16 4
50 6 53 30 53 15 0 35 7 45 16 16 16 18 16 24 0 3 -9 17 -16 30 -16 23 0 32 7
58 44 13 19 14 18 21 -12 7 -35 25 -41 46 -16 11 14 13 14 21 0 14 -24 37 -19
50 11 7 16 13 30 15 32 1 2 11 -7 22 -20 11 -13 20 -20 21 -15 0 5 9 1 20 -9
17 -15 24 -16 45 -7 14 6 25 17 25 23 0 6 9 1 19 -12 l19 -24 22 20 c12 11 28
32 36 47 18 36 38 27 53 -23 12 -40 35 -51 58 -28 8 8 17 8 31 0 33 -17 67
-13 88 12 19 22 19 22 -2 4 -24 -20 -67 -22 -83 -4 -8 11 -5 19 14 37 28 27
32 48 10 57 -23 8 -55 -26 -55 -57 0 -29 -23 -56 -39 -46 -5 4 -12 20 -16 36
-6 29 -56 75 -68 63 -4 -3 -4 -16 -1 -27 5 -21 -28 -76 -45 -76 -4 0 -15 15
-24 32 -8 18 -16 26 -16 17 -1 -9 -10 -24 -21 -34 -16 -15 -22 -15 -35 -5 -8
7 -15 19 -15 26 0 23 40 56 61 51 10 -3 19 -1 19 4 0 5 -10 9 -23 9 -24 0 -67
-37 -67 -58 0 -27 -21 -20 -37 13 l-17 36 -13 -46 c-17 -56 -40 -60 -48 -7
-11 64 -13 68 -14 31 0 -19 -8 -44 -16 -55 -13 -16 -16 -17 -25 -4 -5 8 -10
33 -10 55 l0 40 -28 -50 c-21 -39 -32 -50 -52 -50 -23 0 -25 4 -28 57 -3 52
-1 57 20 61 22 4 23 4 1 6 -18 1 -22 8 -25 44 l-4 42 -4 -39z m-35 -18 c-9
-40 -31 -84 -46 -94 -15 -9 -2 74 17 104 22 33 37 28 29 -10z m29 -85 c-2 -51
-20 -73 -61 -73 -30 0 -29 19 5 74 37 61 58 61 56 -1z m651 16 c7 -11 -22 -49
-37 -49 -12 0 -10 34 4 48 15 15 25 15 33 1z m-773 -25 c20 -43 -22 -83 -57
-54 -19 16 -19 45 1 64 23 23 43 20 56 -10z"/>
<path d="M1733 322 c-13 -2 -23 -7 -23 -11 0 -4 14 -5 31 -3 l32 5 -7 -45 c-4
-25 -12 -67 -19 -94 -10 -43 -16 -49 -42 -54 -39 -7 -48 -40 -11 -40 14 0 28
5 31 10 4 7 12 7 25 0 46 -24 125 2 136 45 7 30 20 32 29 5 14 -45 96 -37 121
12 l16 31 19 -43 c22 -48 22 -48 49 6 11 22 19 31 20 22 1 -48 80 -76 114 -42
15 14 18 14 35 -8 l19 -23 30 22 c26 19 32 20 42 8 15 -18 52 -19 68 -3 21 21
15 76 -9 89 -26 13 -68 -2 -70 -26 -1 -8 -2 -20 -3 -26 -2 -18 -53 -52 -65
-45 -15 10 -14 42 4 76 9 16 18 50 22 75 5 37 3 45 -10 45 -23 0 -36 -29 -43
-96 -8 -68 -26 -94 -64 -94 -43 0 -55 22 -25 48 14 12 25 29 25 37 0 23 -28
30 -49 11 -10 -9 -20 -14 -23 -11 -3 3 -13 -15 -22 -40 -20 -52 -31 -51 -47 8
l-11 42 -15 -30 c-9 -17 -22 -38 -31 -47 -18 -22 -65 -23 -81 -4 -10 12 -7 18
13 31 29 19 34 52 11 62 -9 3 -24 -2 -34 -11 -18 -16 -20 -15 -37 21 -20 39
-87 93 -114 90 -8 -1 -25 -3 -37 -5z m116 -53 c77 -76 27 -194 -73 -175 -29 6
-36 11 -31 23 3 9 13 56 23 103 19 97 28 103 81 49z m468 -1 c-7 -44 -26 -92
-33 -85 -9 9 17 117 28 117 6 0 8 -13 5 -32z m-357 -60 c0 -14 -30 -48 -42
-48 -14 0 -9 28 8 44 18 19 34 21 34 4z m225 -28 c-10 -11 -22 -20 -27 -20
-15 0 -8 39 10 49 26 15 39 -5 17 -29z m254 16 c7 -8 11 -27 9 -43 -3 -24 -8
-28 -33 -28 -25 0 -30 4 -33 28 -4 30 12 57 33 57 7 0 18 -6 24 -14z m-719
-96 c0 -5 -9 -10 -20 -10 -11 0 -20 5 -20 10 0 6 9 10 20 10 11 0 20 -4 20
-10z"/>
<path d="M2502 203 c33 -5 58 -37 51 -64 -8 -28 -32 -23 -51 11 -9 16 -20 30
-24 30 -5 0 -8 -31 -8 -70 0 -38 4 -70 8 -70 5 0 7 26 5 58 -4 55 -3 56 13 34
22 -29 52 -28 66 3 17 37 -12 75 -55 74 -30 -2 -30 -2 -5 -6z"/>
</g>
</svg>
